<svg xmlns="http://www.w3.org/2000/svg" viewBox="0 0 400 300" fill="none">
  <defs>
    <linearGradient id="bg3" x1="0" y1="0" x2="400" y2="300" gradientUnits="userSpaceOnUse">
      <stop offset="0%" stop-color="#f0fdf4"/>
      <stop offset="100%" stop-color="#ecfdf5"/>
    </linearGradient>
  </defs>

  <rect width="400" height="300" fill="url(#bg3)"/>

  <!-- Dashboard mockup -->
  <rect x="40" y="30" width="320" height="240" rx="16" fill="white" stroke="#e2e8f0" stroke-width="1"/>

  <!-- Sidebar -->
  <rect x="40" y="30" width="80" height="240" rx="16" fill="#f8fafc"/>
  <rect x="40" y="30" width="80" height="240" rx="0" fill="#f8fafc"/>
  <rect x="52" y="50" width="56" height="8" rx="4" fill="#3b82f6" opacity="0.2"/>
  <rect x="52" y="72" width="48" height="6" rx="3" fill="#e2e8f0"/>
  <rect x="52" y="90" width="52" height="6" rx="3" fill="#e2e8f0"/>
  <rect x="52" y="108" width="44" height="6" rx="3" fill="#e2e8f0"/>

  <!-- Stats cards -->
  <rect x="136" y="50" width="100" height="60" rx="10" fill="#f8fafc" stroke="#e2e8f0" stroke-width="0.5"/>
  <text x="150" y="74" font-family="system-ui" font-weight="700" font-size="18" fill="#1e293b">24</text>
  <text x="150" y="92" font-family="system-ui" font-weight="500" font-size="9" fill="#94a3b8">Reservas hoy</text>

  <rect x="248" y="50" width="100" height="60" rx="10" fill="#f8fafc" stroke="#e2e8f0" stroke-width="0.5"/>
  <text x="262" y="74" font-family="system-ui" font-weight="700" font-size="18" fill="#22c55e">$1.2k</text>
  <text x="262" y="92" font-family="system-ui" font-weight="500" font-size="9" fill="#94a3b8">Ingresos</text>

  <!-- Chart bars -->
  <rect x="140" y="140" width="20" height="80" rx="4" fill="#3b82f6" opacity="0.15"/>
  <rect x="140" y="170" width="20" height="50" rx="4" fill="#3b82f6" opacity="0.3"/>
  <rect x="170" y="150" width="20" height="70" rx="4" fill="#3b82f6" opacity="0.2"/>
  <rect x="170" y="165" width="20" height="55" rx="4" fill="#3b82f6" opacity="0.4"/>
  <rect x="200" y="145" width="20" height="75" rx="4" fill="#3b82f6" opacity="0.25"/>
  <rect x="200" y="160" width="20" height="60" rx="4" fill="#3b82f6" opacity="0.5"/>
  <rect x="230" y="155" width="20" height="65" rx="4" fill="#3b82f6" opacity="0.2"/>
  <rect x="230" y="175" width="20" height="45" rx="4" fill="#3b82f6" opacity="0.35"/>
  <rect x="260" y="135" width="20" height="85" rx="4" fill="#3b82f6" opacity="0.3"/>
  <rect x="260" y="150" width="20" height="70" rx="4" fill="#3b82f6" opacity="0.6"/>
  <rect x="290" y="148" width="20" height="72" rx="4" fill="#3b82f6" opacity="0.2"/>
  <rect x="290" y="168" width="20" height="52" rx="4" fill="#3b82f6" opacity="0.45"/>
  <rect x="320" y="130" width="20" height="90" rx="4" fill="#3b82f6" opacity="0.35"/>
  <rect x="320" y="145" width="20" height="75" rx="4" fill="#3b82f6" opacity="0.7"/>
</svg>
