<svg xmlns="http://www.w3.org/2000/svg" viewBox="0 0 32 32" fill="none">
  <path d="M16 3C8.82 3 3 8.37 3 15c0 2.38.82 4.57 2.2 6.32L3 29l8.02-2.06C12.33 27.62 14.12 28 16 28c7.18 0 13-5.37 13-12S23.18 3 16 3z" fill="#3b82f6" opacity="0.12"/>
  <path d="M16 3C8.82 3 3 8.37 3 15c0 2.38.82 4.57 2.2 6.32L3 29l8.02-2.06C12.33 27.62 14.12 28 16 28c7.18 0 13-5.37 13-12S23.18 3 16 3z" stroke="#3b82f6" stroke-width="1.8"/>
  <path d="M11 13.5c0 0 .5-2 1.5-2s1.5 1.5 1.5 1.5" stroke="#3b82f6" stroke-width="1.8" stroke-linecap="round"/>
  <path d="M18 13.5c0 0 .5-2 1.5-2s1.5 1.5 1.5 1.5" stroke="#3b82f6" stroke-width="1.8" stroke-linecap="round"/>
  <path d="M11 18c0 0 .5-2 1.5-2s1.5 1.5 1.5 1.5" stroke="#3b82f6" stroke-width="1.8" stroke-linecap="round"/>
  <path d="M18 18c0 0 .5-2 1.5-2s1.5 1.5 1.5 1.5" stroke="#3b82f6" stroke-width="1.8" stroke-linecap="round"/>
  <path d="M13 22l-2 5 5-2" stroke="#3b82f6" stroke-width="1.8" stroke-linecap="round" stroke-linejoin="round"/>
</svg>
