<svg xmlns="http://www.w3.org/2000/svg" viewBox="0 0 48 48" fill="none">
  <path d="M24 8c-3 5-8 8-8 15a8 8 0 0 0 16 0c0-7-5-10-8-15z" fill="#3b82f6" opacity="0.1"/>
  <path d="M24 8c-3 5-8 8-8 15a8 8 0 0 0 16 0c0-7-5-10-8-15z" stroke="#3b82f6" stroke-width="1.8"/>
  <circle cx="24" cy="23" r="3" fill="#3b82f6" opacity="0.25"/>
  <path d="M14 30c-3 2-5 5-5 9" stroke="#3b82f6" stroke-width="1.5" stroke-linecap="round"/>
  <path d="M34 30c3 2 5 5 5 9" stroke="#3b82f6" stroke-width="1.5" stroke-linecap="round"/>
  <path d="M19 32c-1.5 2-1.5 5-1.5 7" stroke="#3b82f6" stroke-width="1.5" stroke-linecap="round"/>
  <path d="M29 32c1.5 2 1.5 5 1.5 7" stroke="#3b82f6" stroke-width="1.5" stroke-linecap="round"/>
</svg>
