<svg xmlns="http://www.w3.org/2000/svg" viewBox="0 0 48 48" fill="none">
  <path d="M24 38c-10 0-16-7-16-14 0-7 5-12 9-14 2-1 5-1 7 0 4 2 9 7 9 14 0 7-6 14-16 14z" fill="#3b82f6" opacity="0.08"/>
  <path d="M24 38c-10 0-16-7-16-14 0-7 5-12 9-14 2-1 5-1 7 0 4 2 9 7 9 14 0 7-6 14-16 14z" stroke="#3b82f6" stroke-width="1.8"/>
  <circle cx="18" cy="24" r="2.5" fill="#3b82f6" opacity="0.3"/>
  <circle cx="30" cy="24" r="2.5" fill="#3b82f6" opacity="0.3"/>
  <path d="M21 30c1 2 2 3 3 3s2-1 3-3" stroke="#3b82f6" stroke-width="1.5" stroke-linecap="round"/>
  <path d="M15 18c-2-2-2-6 0-9" stroke="#3b82f6" stroke-width="1.5" stroke-linecap="round"/>
  <path d="M33 18c2-2 2-6 0-9" stroke="#3b82f6" stroke-width="1.5" stroke-linecap="round"/>
</svg>
